<svg width="246" height="246" viewBox="0 0 246 246" xmlns="http://www.w3.org/2000/svg" style="fill-rule:evenodd;clip-rule:evenodd;stroke-linejoin:round;stroke-miterlimit:2;">
    <path d="M234.504,65.6l-12.002,8.998c-23.513,-31.364 -60.423,-49.824 -99.622,-49.824c-39.575,0 -71.705,32.13 -71.705,71.705c0,39.575 32.13,71.705 71.705,71.705c10.432,0 18.902,-8.47 18.902,-18.902c0,-10.432 -8.47,-18.902 -18.902,-18.902c-18.711,0 -33.902,-15.191 -33.902,-33.902c0,-18.711 15.191,-33.902 33.902,-33.902c47.854,0 86.705,38.851 86.705,86.705c0,47.854 -38.851,86.705 -86.705,86.705c-43.921,0 -85.278,-20.684 -111.624,-55.826l12.002,-8.998c23.513,31.364 60.423,49.824 99.622,49.824c39.575,0 71.705,-32.13 71.705,-71.705c0,-39.575 -32.13,-71.705 -71.705,-71.705c-10.432,0 -18.902,8.47 -18.902,18.902c0,10.432 8.47,18.902 18.902,18.902c18.711,0 33.902,15.191 33.902,33.902c0,18.711 -15.191,33.902 -33.902,33.902c-47.854,0 -86.705,-38.851 -86.705,-86.705c0,-47.854 38.851,-86.705 86.705,-86.705c43.921,0 85.278,20.684 111.624,55.826Z" fill="#00311B"/>
</svg>
